<?xml version="1.0" encoding="utf-8"?>
<!-- Generated by IcoMoon.io -->
<svg version="1.1" xmlns="http://www.w3.org/2000/svg" xmlns:xlink="http://www.w3.org/1999/xlink" width="688" height="28" viewBox="0 0 688 28">
<svg id="icon-envelope" width="28" height="28" viewBox="0 0 28 28" x="0" y="0">
<path d="M28 11.094v12.406c0 1.375-1.125 2.5-2.5 2.5h-23c-1.375 0-2.5-1.125-2.5-2.5v-12.406c0.469 0.516 1 0.969 1.578 1.359 2.594 1.766 5.219 3.531 7.766 5.391 1.313 0.969 2.938 2.156 4.641 2.156h0.031c1.703 0 3.328-1.188 4.641-2.156 2.547-1.844 5.172-3.625 7.781-5.391 0.562-0.391 1.094-0.844 1.563-1.359zM28 6.5c0 1.75-1.297 3.328-2.672 4.281-2.438 1.687-4.891 3.375-7.313 5.078-1.016 0.703-2.734 2.141-4 2.141h-0.031c-1.266 0-2.984-1.437-4-2.141-2.422-1.703-4.875-3.391-7.297-5.078-1.109-0.75-2.688-2.516-2.688-3.938 0-1.531 0.828-2.844 2.5-2.844h23c1.359 0 2.5 1.125 2.5 2.5z"></path>
</svg>
<svg id="icon-instagram" width="24" height="28" viewBox="0 0 24 28" x="44" y="0">
<path d="M16 14c0-2.203-1.797-4-4-4s-4 1.797-4 4 1.797 4 4 4 4-1.797 4-4zM18.156 14c0 3.406-2.75 6.156-6.156 6.156s-6.156-2.75-6.156-6.156 2.75-6.156 6.156-6.156 6.156 2.75 6.156 6.156zM19.844 7.594c0 0.797-0.641 1.437-1.437 1.437s-1.437-0.641-1.437-1.437 0.641-1.437 1.437-1.437 1.437 0.641 1.437 1.437zM12 4.156c-1.75 0-5.5-0.141-7.078 0.484-0.547 0.219-0.953 0.484-1.375 0.906s-0.688 0.828-0.906 1.375c-0.625 1.578-0.484 5.328-0.484 7.078s-0.141 5.5 0.484 7.078c0.219 0.547 0.484 0.953 0.906 1.375s0.828 0.688 1.375 0.906c1.578 0.625 5.328 0.484 7.078 0.484s5.5 0.141 7.078-0.484c0.547-0.219 0.953-0.484 1.375-0.906s0.688-0.828 0.906-1.375c0.625-1.578 0.484-5.328 0.484-7.078s0.141-5.5-0.484-7.078c-0.219-0.547-0.484-0.953-0.906-1.375s-0.828-0.688-1.375-0.906c-1.578-0.625-5.328-0.484-7.078-0.484zM24 14c0 1.656 0.016 3.297-0.078 4.953-0.094 1.922-0.531 3.625-1.937 5.031s-3.109 1.844-5.031 1.937c-1.656 0.094-3.297 0.078-4.953 0.078s-3.297 0.016-4.953-0.078c-1.922-0.094-3.625-0.531-5.031-1.937s-1.844-3.109-1.937-5.031c-0.094-1.656-0.078-3.297-0.078-4.953s-0.016-3.297 0.078-4.953c0.094-1.922 0.531-3.625 1.937-5.031s3.109-1.844 5.031-1.937c1.656-0.094 3.297-0.078 4.953-0.078s3.297-0.016 4.953 0.078c1.922 0.094 3.625 0.531 5.031 1.937s1.844 3.109 1.937 5.031c0.094 1.656 0.078 3.297 0.078 4.953z"></path>
</svg>
<svg id="icon-git-square" width="24" height="28" viewBox="0 0 24 28" x="88" y="0">
<path d="M9.094 20.438c0 0.844-0.766 1.031-1.453 1.031-0.672 0-1.672-0.109-1.672-0.984 0-0.859 0.844-1 1.531-1 0.656 0 1.594 0.109 1.594 0.953zM8.531 13.156c0 0.781-0.313 1.328-1.156 1.328-0.859 0-1.203-0.5-1.203-1.313s0.313-1.406 1.203-1.406c0.797 0 1.156 0.656 1.156 1.391zM11.125 11.984v-1.953c-0.672 0.25-1.391 0.453-2.109 0.453-0.516-0.297-1.109-0.453-1.719-0.453-1.781 0-3.187 1.313-3.187 3.125 0 0.969 0.641 2.312 1.609 2.641v0.047c-0.5 0.219-0.594 0.828-0.594 1.328 0 0.516 0.187 0.938 0.641 1.203v0.047c-1.062 0.344-1.766 1.016-1.766 2.172 0 1.984 1.891 2.547 3.547 2.547 2 0 3.5-0.734 3.5-2.938 0-1.563-1.422-2.031-2.719-2.266-0.438-0.078-1.188-0.391-1.188-0.938 0-0.516 0.281-0.734 0.766-0.812 1.594-0.313 2.609-1.547 2.609-3.187 0-0.281-0.063-0.547-0.156-0.812 0.25-0.063 0.516-0.125 0.766-0.203zM12.047 18.531h2.141c-0.031-0.422-0.031-0.859-0.031-1.281v-6.047c0-0.359 0-0.719 0.031-1.078h-2.141c0.047 0.359 0.047 0.75 0.047 1.109v6.125c0 0.391 0 0.781-0.047 1.172zM20 18.281v-1.891c-0.313 0.219-0.688 0.328-1.062 0.328-0.703 0-0.828-0.703-0.828-1.281v-3.516h0.812c0.281 0 0.547 0.031 0.828 0.031v-1.828h-1.641c0-0.531-0.031-1.062 0.047-1.594h-2.188c0.047 0.281 0.063 0.562 0.063 0.859v0.734h-0.938v1.828c0.187-0.016 0.375-0.047 0.578-0.047 0.109 0 0.234 0.016 0.359 0.016v0.031h-0.031v3.391c0 1.687 0.25 3.313 2.312 3.313 0.578 0 1.172-0.094 1.687-0.375zM14.438 7.25c0-0.734-0.547-1.422-1.313-1.422s-1.328 0.672-1.328 1.422c0 0.734 0.578 1.391 1.328 1.391s1.313-0.672 1.313-1.391zM24 6.5v15c0 2.484-2.016 4.5-4.5 4.5h-15c-2.484 0-4.5-2.016-4.5-4.5v-15c0-2.484 2.016-4.5 4.5-4.5h15c2.484 0 4.5 2.016 4.5 4.5z"></path>
</svg>
</svg>
